<?xml version="1.0" encoding="UTF-8" standalone="no"?><!DOCTYPE svg PUBLIC "-//W3C//DTD SVG 1.1//EN" "http://www.w3.org/Graphics/SVG/1.1/DTD/svg11.dtd"><svg width="314" height="121" viewBox="0 0 628 242" version="1.1" xmlns="http://www.w3.org/2000/svg" xmlns:xlink="http://www.w3.org/1999/xlink" xml:space="preserve" xmlns:serif="http://www.serif.com/" style="fill-rule:evenodd;clip-rule:evenodd;stroke-linecap:round;stroke-linejoin:round;stroke-miterlimit:1.5;"><path d="M194.5,155.5c0,0 4.091,-72.553 4,-88" style="fill:none;stroke:#363536;stroke-width:25px;"/><path d="M207.5,12.5l0,7" style="fill:none;stroke:#363536;stroke-width:25px;"/><path d="M253.5,74.5c0,0 -21.326,70.651 9,79c30.326,8.349 45,-66 45,-66c0,0 24.02,165.55 -49,139" style="fill:none;stroke:#363536;stroke-width:25px;"/><path d="M360.5,80.5c0,0 -12.404,78.588 16,80c28.404,1.412 39,-86 39,-86c0,0 -1.097,66.495 8,81" style="fill:none;stroke:#363536;stroke-width:25px;"/><path d="M467.5,22.5l1,141c0,0 -13.134,-37.636 50,-104" style="fill:none;stroke:#363536;stroke-width:25px;"/><path d="M482.528,106.364c-0,-0 2.467,22.7 28.972,49.136" style="fill:none;stroke:#363536;stroke-width:25px;"/><path d="M552.5,96.5c12.044,-19.833 59.937,-20.115 62,3c2.302,25.795 -12.211,57.753 -28,61c-24.818,5.104 -46.044,-44.167 -34,-64Z" style="fill:none;stroke:#363536;stroke-width:25px;"/><path d="M12.5,50.5c8.954,24.229 5,118 5,118c0,0 -3.481,-90.884 39,-97c32.398,-4.664 18,78 18,78c0,0 16.937,-83.922 48,-79c27.737,4.395 23.336,66.766 23,81" style="fill:none;stroke:#363536;stroke-width:25px;"/></svg>
